<?xml version="1.0" standalone="no"?>
<!DOCTYPE svg PUBLIC "-//W3C//DTD SVG 20010904//EN"
 "http://www.w3.org/TR/2001/REC-SVG-20010904/DTD/svg10.dtd">
<svg version="1.0" xmlns="http://www.w3.org/2000/svg"
 width="257.000000pt" height="300.000000pt" viewBox="0 0 257.000000 300.000000"
 preserveAspectRatio="xMidYMid meet">
<metadata>
Created by potrace 1.10, written by Peter Selinger 2001-2011
</metadata>
<g transform="translate(0.000000,300.000000) scale(0.100000,-0.100000)"
fill="#000000" stroke="none">
<path d="M100 1515 l0 -1395 1180 0 1180 0 0 1395 0 1395 -1180 0 -1180 0 0
-1395z m1490 1220 l0 -165 -740 0 -740 0 0 165 0 165 740 0 740 0 0 -165z
m860 0 l0 -165 -425 0 -425 0 0 165 0 165 425 0 425 0 0 -165z m-860 -345 l0
-170 -740 0 -740 0 0 165 0 165 738 3 c405 1 738 3 740 5 1 1 2 -74 2 -168z
m860 -5 l0 -165 -425 0 -425 0 0 168 0 167 425 -3 425 -2 0 -165z m-860 -345
l0 -160 -740 0 -740 0 0 160 0 160 740 0 740 0 0 -160z m860 0 l0 -160 -425 0
-425 0 0 160 0 160 425 0 425 0 0 -160z m-860 -347 l0 -168 -740 3 -740 2 0
165 0 165 740 0 740 0 0 -167z m860 2 l0 -165 -425 -2 -425 -3 0 168 0 167
425 0 425 0 0 -165z m-860 -352 l0 -168 -740 0 -740 0 0 168 0 167 740 0 740
0 0 -167z m860 0 l0 -168 -425 0 -425 0 0 168 0 167 425 0 425 0 0 -167z
m-860 -348 l0 -165 -740 0 -740 0 0 165 0 165 740 0 740 0 0 -165z m860 0 l0
-165 -425 0 -425 0 0 165 0 165 425 0 425 0 0 -165z m-860 -345 l0 -170 -740
0 -740 0 0 170 0 170 740 0 740 0 0 -170z m860 0 l0 -170 -425 0 -425 0 0 170
0 170 425 0 425 0 0 -170z m-860 -350 l0 -170 -740 0 -740 0 0 170 0 170 740
0 740 0 0 -170z m860 0 l0 -170 -425 0 -425 0 0 170 0 170 425 0 425 0 0 -170z"/>
<path d="M450 2770 l0 -70 40 0 c29 0 40 4 40 15 0 9 -9 15 -25 15 -24 0 -25
3 -25 55 0 42 -3 55 -15 55 -12 0 -15 -14 -15 -70z"/>
<path d="M858 2816 c-12 -11 -15 -27 -12 -54 8 -56 12 -62 34 -62 21 0 27 14
10 25 -14 9 -12 52 3 58 8 4 9 8 1 14 -6 4 -13 14 -15 22 -4 11 -8 11 -21 -3z"/>
<path d="M552 2788 c-27 -27 -5 -88 33 -88 44 0 67 40 45 81 -12 22 -59 26
-78 7z m53 -38 c0 -13 -6 -25 -12 -27 -16 -6 -27 21 -19 43 9 23 31 11 31 -16z"/>
<path d="M658 2775 c-17 -38 4 -77 39 -73 14 2 28 9 31 16 2 7 -2 13 -9 11
-31 -4 -40 2 -37 24 2 16 9 21 26 20 14 -2 22 3 22 12 0 10 -10 15 -30 15 -23
0 -33 -6 -42 -25z"/>
<path d="M750 2787 c0 -10 7 -13 20 -10 11 3 20 1 20 -5 0 -6 -10 -12 -22 -14
-17 -2 -23 -10 -23 -28 0 -22 4 -25 38 -26 l38 -1 -3 46 c-3 44 -4 46 -35 49
-24 2 -33 -1 -33 -11z"/>
<path d="M920 2760 c0 -22 0 -43 -1 -47 0 -4 4 -9 10 -11 7 -2 11 15 11 47 0
28 -4 51 -10 51 -5 0 -10 -18 -10 -40z"/>
<path d="M970 2779 c-26 -47 25 -100 69 -72 20 13 26 60 10 79 -18 22 -66 18
-79 -7z m55 -29 c0 -27 -22 -39 -31 -16 -8 22 3 49 19 43 6 -2 12 -14 12 -27z"/>
<path d="M1080 2749 c0 -36 4 -49 14 -49 10 0 16 13 18 37 4 52 28 56 28 4 0
-30 4 -41 16 -41 12 0 14 10 12 48 l-3 47 -42 2 -43 2 0 -50z"/>
<path d="M1197 2793 c-14 -14 -6 -45 13 -50 26 -7 26 -25 0 -21 -10 2 -20 -1
-22 -7 -4 -15 41 -18 58 -5 21 19 17 35 -13 50 l-28 14 28 4 c15 2 25 8 22 13
-7 10 -48 12 -58 2z"/>
<path d="M1820 2770 c0 -56 3 -70 15 -70 9 0 15 9 15 24 0 18 7 25 30 30 25 5
30 10 30 36 0 32 -4 35 -57 44 l-33 6 0 -70z m65 20 c0 -8 -8 -16 -17 -18 -13
-2 -18 3 -18 18 0 15 5 20 18 18 9 -2 17 -10 17 -18z"/>
<path d="M1930 2749 c0 -37 4 -49 15 -49 10 0 15 11 15 35 0 24 5 35 15 35 30
0 15 27 -15 28 -29 1 -30 0 -30 -49z"/>
<path d="M2008 2758 c-5 -43 3 -65 19 -55 10 7 4 97 -7 97 -4 0 -10 -19 -12
-42z"/>
<path d="M2067 2782 c-21 -23 -22 -46 -1 -66 21 -21 64 -21 64 0 0 10 -6 14
-14 11 -23 -9 -41 19 -26 38 7 9 19 14 27 11 7 -3 13 1 13 9 0 21 -43 19 -63
-3z"/>
<path d="M2150 2779 c-25 -45 18 -94 66 -75 21 8 8 25 -15 19 -10 -3 -22 0
-25 6 -5 7 4 11 23 11 23 0 31 5 31 18 0 42 -61 58 -80 21z"/>
<path d="M270 2449 l0 -60 33 3 c29 3 32 6 32 38 0 29 -4 36 -22 38 -15 2 -23
10 -23 23 0 10 -4 19 -10 19 -6 0 -10 -27 -10 -61z m60 -9 c0 -20 -13 -40 -26
-40 -14 0 -20 41 -8 53 8 7 34 -3 34 -13z"/>
<path d="M550 2490 c0 -13 -7 -20 -20 -20 -24 0 -43 -34 -35 -60 5 -15 15 -20
41 -20 l34 0 0 60 c0 33 -4 60 -10 60 -5 0 -10 -9 -10 -20z m-5 -60 c0 -13 -6
-25 -12 -27 -16 -6 -27 21 -19 43 9 23 31 11 31 -16z"/>
<path d="M194 2483 c-4 -10 -13 -33 -21 -52 -15 -38 -8 -55 11 -28 17 22 42
22 55 0 19 -34 20 -6 2 42 -20 53 -37 67 -47 38z"/>
<path d="M903 2483 c-3 -10 -12 -33 -20 -52 -14 -36 -8 -58 8 -28 13 22 38 22
55 0 22 -31 23 -10 2 45 -20 54 -34 65 -45 35z"/>
<path d="M1315 2480 c-3 -5 -17 -10 -31 -10 -19 0 -24 -5 -24 -24 0 -13 -3
-31 -6 -40 -4 -10 -1 -16 9 -16 10 0 13 7 10 20 -5 20 12 50 28 50 5 0 9 -13
9 -29 0 -31 24 -59 35 -41 3 5 1 10 -4 10 -15 0 -14 47 1 52 9 3 8 9 -4 21
-10 11 -19 13 -23 7z"/>
<path d="M375 2466 c-11 -8 -16 -22 -13 -41 2 -24 8 -31 31 -33 15 -2 27 1 27
6 0 6 -9 8 -20 5 -14 -4 -20 0 -20 12 0 12 6 16 20 12 23 -6 33 5 24 26 -8 22
-29 28 -49 13z"/>
<path d="M458 2473 c-14 -3 -18 -15 -18 -44 0 -21 5 -39 10 -39 6 0 10 12 10
26 0 15 7 32 17 39 18 13 7 24 -19 18z"/>
<path d="M685 2466 c-11 -8 -16 -22 -13 -41 2 -24 8 -31 31 -33 15 -2 27 1 27
6 0 5 -8 8 -17 8 -29 -2 -30 19 -2 22 21 2 26 7 22 22 -7 25 -27 32 -48 16z"/>
<path d="M773 2472 c-19 -3 -23 -10 -23 -43 0 -47 17 -52 22 -6 2 17 8 32 13
32 6 0 11 -15 13 -32 4 -43 22 -42 22 1 0 38 -15 54 -47 48z"/>
<path d="M1093 2472 c-21 -3 -23 -9 -23 -63 0 -33 4 -59 10 -59 6 0 10 9 10
20 0 14 7 20 24 20 24 0 36 16 36 50 0 23 -26 38 -57 32z m32 -42 c0 -13 -6
-25 -12 -27 -16 -6 -27 21 -19 43 9 23 31 11 31 -16z"/>
<path d="M1176 2464 c-33 -32 -14 -77 30 -72 24 2 30 8 32 33 3 19 -2 33 -14
42 -23 17 -29 16 -48 -3z m42 -37 c2 -19 -1 -27 -13 -27 -19 0 -30 24 -21 46
9 23 31 11 34 -19z"/>
<path d="M591 2456 c-8 -9 -11 -26 -7 -41 5 -20 13 -25 36 -25 17 0 30 4 30 8
0 5 -10 8 -21 8 -12 -1 -24 5 -26 12 -3 7 5 12 22 12 20 0 26 4 23 18 -4 22
-41 27 -57 8z"/>
<path d="M980 2430 c0 -22 5 -40 10 -40 6 0 10 18 10 40 0 22 -4 40 -10 40 -5
0 -10 -18 -10 -40z"/>
<path d="M1020 2430 c0 -22 5 -40 10 -40 6 0 10 13 10 28 0 15 5 33 12 40 9 9
7 12 -10 12 -19 0 -22 -5 -22 -40z"/>
<path d="M1862 2478 c-7 -7 -12 -20 -12 -29 0 -10 -6 -20 -12 -22 -10 -4 -9
-8 2 -16 12 -9 13 -14 3 -31 -19 -29 -17 -30 32 -30 25 0 45 5 45 10 0 6 -13
10 -29 10 -24 0 -28 3 -24 20 3 11 13 20 22 20 14 1 14 2 -1 14 -24 18 -23 46
2 46 11 0 20 5 20 10 0 14 -33 13 -48 -2z"/>
<path d="M1958 2476 c-22 -16 -23 -30 -3 -22 12 4 15 -5 15 -49 0 -30 5 -55
10 -55 6 0 10 30 10 70 0 73 -3 78 -32 56z"/>
<path d="M2043 2483 c-24 -9 -13 -23 12 -17 41 10 45 -23 7 -55 -46 -37 -43
-61 8 -61 22 0 40 5 40 10 0 6 -14 10 -32 10 l-32 0 32 33 c18 18 32 40 32 48
0 31 -33 46 -67 32z"/>
<path d="M2141 2476 c-18 -22 -10 -107 12 -120 29 -19 52 4 55 58 3 51 -9 76
-38 76 -10 0 -23 -6 -29 -14z m48 -29 c13 -35 2 -77 -20 -77 -16 0 -19 8 -19
43 0 24 3 47 7 50 12 13 23 7 32 -16z"/>
<path d="M279 2153 c-5 -29 -3 -113 3 -113 9 0 15 111 6 117 -5 2 -9 1 -9 -4z"/>
<path d="M173 2124 c-15 -24 -15 -29 -2 -53 11 -19 24 -27 52 -29 35 -3 37 -2
37 27 0 24 -4 31 -20 31 -11 0 -20 -4 -20 -10 0 -5 5 -10 10 -10 6 0 10 -7 10
-16 0 -23 -41 -13 -51 12 -11 32 16 67 47 60 14 -4 24 -2 24 4 0 5 -16 10 -35
10 -26 0 -39 -6 -52 -26z"/>
<path d="M803 2095 c-16 -41 -18 -55 -8 -55 7 0 15 7 19 15 3 8 14 15 25 15
10 0 21 -7 25 -15 3 -8 10 -15 15 -15 5 0 -1 25 -12 55 -12 30 -26 55 -32 55
-5 0 -20 -25 -32 -55z"/>
<path d="M1230 2130 c0 -5 -13 -10 -30 -10 -28 0 -30 -2 -30 -40 0 -22 5 -40
10 -40 6 0 10 13 10 29 0 16 6 31 14 34 19 8 26 -1 26 -34 0 -27 24 -47 35
-29 4 6 1 10 -4 10 -14 0 -14 47 -1 55 6 4 5 12 -4 21 -17 16 -26 18 -26 4z"/>
<path d="M314 2109 c-5 -9 -1 -11 14 -7 12 4 24 2 27 -2 3 -5 -5 -10 -17 -12
-15 -2 -24 -11 -26 -25 -3 -20 1 -23 28 -23 30 0 31 1 28 38 -2 29 -8 38 -25
40 -11 2 -24 -2 -29 -9z"/>
<path d="M393 2104 c-4 -10 0 -20 10 -26 22 -12 22 -25 0 -31 -11 -3 -7 -5 10
-6 20 -1 27 4 27 18 0 10 -7 21 -15 25 -8 3 -15 10 -15 15 0 6 7 8 15 5 8 -4
15 -1 15 5 0 17 -40 13 -47 -5z"/>
<path d="M464 2106 c-11 -30 1 -61 24 -64 29 -4 23 -28 -7 -25 -11 2 -21 -2
-21 -8 0 -6 14 -9 33 -7 32 3 32 4 35 61 l3 57 -31 0 c-17 0 -33 -6 -36 -14z
m50 -39 c-3 -9 -13 -17 -20 -17 -21 0 -29 27 -13 46 10 13 14 13 26 1 8 -7 11
-21 7 -30z"/>
<path d="M554 2106 c-12 -32 0 -61 28 -64 32 -4 50 22 37 56 -10 25 -56 31
-65 8z m54 -30 c-4 -25 -36 -34 -44 -12 -8 21 13 46 32 39 8 -3 14 -15 12 -27z"/>
<path d="M635 2103 c4 -10 10 -28 12 -40 3 -13 11 -23 18 -23 8 0 16 10 18 23
l4 22 8 -22 c10 -30 23 -29 35 3 13 33 13 57 0 49 -5 -3 -10 -15 -10 -26 0
-11 -4 -17 -10 -14 -5 3 -10 15 -10 26 0 29 -19 23 -27 -8 l-6 -28 -10 28 c-5
15 -13 27 -19 27 -6 0 -7 -7 -3 -17z"/>
<path d="M900 2081 c0 -23 5 -41 10 -41 6 0 10 15 10 34 0 19 -4 38 -10 41 -6
4 -10 -10 -10 -34z"/>
<path d="M937 2113 c-11 -10 -8 -73 3 -73 6 0 10 14 10 30 0 20 5 30 15 30 8
0 15 5 15 10 0 11 -33 14 -43 3z"/>
<path d="M990 2060 c0 -33 4 -60 10 -60 6 0 10 9 10 20 0 13 7 20 20 20 10 0
23 7 28 16 8 15 12 14 31 -5 17 -17 26 -19 40 -12 25 14 33 38 21 62 -15 27
-58 25 -69 -3 l-8 -22 -12 22 c-8 15 -21 22 -41 22 -30 0 -30 0 -30 -60z m147
6 c-8 -20 -36 -21 -43 -1 -4 8 0 22 7 31 11 13 14 13 27 0 8 -8 12 -22 9 -30z
m-89 12 c-5 -34 -38 -37 -38 -4 0 20 5 26 21 26 15 0 20 -5 17 -22z"/>
<path d="M1862 2138 c-7 -7 -12 -20 -12 -29 0 -10 -5 -21 -11 -25 -8 -4 -7 -9
2 -15 11 -7 12 -12 2 -29 -19 -29 -17 -30 33 -30 27 0 43 4 39 10 -3 6 -17 10
-30 10 -18 0 -22 4 -18 19 3 11 12 22 22 24 14 4 14 5 -1 6 -25 1 -23 41 2 48
11 3 17 9 14 14 -7 13 -28 11 -42 -3z"/>
<path d="M1963 2138 c-25 -12 -32 -34 -8 -24 12 4 15 -5 15 -49 0 -30 5 -55
10 -55 6 0 10 30 10 70 0 39 -1 70 -2 69 -2 0 -13 -5 -25 -11z"/>
<path d="M2148 2139 c-13 -7 -18 -23 -18 -54 0 -58 8 -75 34 -75 34 0 46 19
46 72 0 37 -4 50 -19 58 -23 12 -22 12 -43 -1z m37 -20 c9 -13 9 -74 1 -88 -4
-6 -13 -8 -21 -4 -15 5 -22 83 -8 96 9 10 21 8 28 -4z"/>
<path d="M2040 2104 c0 -19 4 -33 9 -30 16 10 41 -5 41 -25 0 -19 -9 -23 -42
-20 -10 1 -18 -3 -18 -8 0 -16 56 -13 70 4 17 20 9 48 -18 60 -28 12 -31 49
-3 40 11 -3 22 -1 26 5 4 6 -7 10 -29 10 -35 0 -36 -1 -36 -36z"/>
<path d="M470 1817 c-3 -3 -3 -30 -2 -60 3 -46 7 -56 25 -61 30 -8 49 12 45
48 -2 26 -7 31 -28 31 -18 0 -26 6 -30 23 -3 13 -7 22 -10 19z m54 -66 c9 -14
-4 -41 -19 -41 -18 0 -28 17 -21 35 6 17 32 20 40 6z"/>
<path d="M790 1761 c0 -34 4 -61 10 -61 6 0 10 14 10 30 0 20 5 30 15 30 10 0
15 -10 15 -30 0 -16 5 -30 11 -30 6 0 9 16 7 38 -2 30 -7 38 -25 40 -13 2 -23
10 -23 17 0 8 -4 17 -10 20 -6 4 -10 -17 -10 -54z"/>
<path d="M170 1755 l0 -55 33 1 c23 1 26 3 10 6 -13 2 -23 10 -23 18 0 7 10
16 23 20 l22 8 -22 4 c-28 5 -30 33 -3 33 11 0 20 5 20 10 0 6 -13 10 -30 10
-30 0 -30 -1 -30 -55z"/>
<path d="M300 1795 c0 -8 -9 -15 -20 -15 -38 0 -51 -70 -16 -83 8 -3 24 -3 35
0 18 5 21 13 21 59 0 30 -4 54 -10 54 -5 0 -10 -7 -10 -15z m-2 -57 c-2 -13
-10 -23 -18 -23 -8 0 -16 10 -18 23 -3 17 2 22 18 22 16 0 21 -5 18 -22z"/>
<path d="M943 1793 c-3 -10 -12 -33 -20 -52 -14 -36 -8 -58 8 -28 13 22 38 22
55 0 22 -31 22 -10 1 45 -20 54 -33 64 -44 35z"/>
<path d="M1354 1790 c-5 -4 -20 -10 -33 -12 -19 -2 -24 -9 -26 -40 -1 -23 3
-38 9 -38 7 0 12 12 11 28 0 21 5 28 24 30 21 3 23 1 17 -21 -7 -30 18 -57 36
-39 9 9 8 12 -5 12 -20 0 -24 46 -5 52 10 4 9 9 -3 21 -9 9 -20 12 -25 7z"/>
<path d="M340 1740 c0 -22 5 -40 10 -40 6 0 10 18 10 40 0 22 -4 40 -10 40 -5
0 -10 -18 -10 -40z"/>
<path d="M380 1740 c0 -22 5 -40 10 -40 6 0 9 12 8 27 -2 19 2 28 15 31 13 3
17 -3 17 -27 0 -17 5 -31 10 -31 11 0 13 24 4 58 -5 16 -14 22 -35 22 -27 0
-29 -3 -29 -40z"/>
<path d="M550 1752 c0 -40 20 -63 48 -56 19 5 22 13 21 48 l-2 41 -6 -35 c-8
-46 -35 -48 -39 -2 -4 39 -22 43 -22 4z"/>
<path d="M649 1778 c-7 -31 -3 -78 6 -78 8 0 10 9 7 25 -3 17 1 27 12 31 22 9
20 24 -4 24 -11 0 -20 -1 -21 -2z"/>
<path d="M700 1761 c-5 -11 -10 -27 -10 -35 0 -18 29 -35 49 -28 8 3 12 -1 9
-9 -3 -8 -15 -14 -27 -13 -11 0 -21 -3 -21 -8 0 -12 44 -10 58 4 7 7 12 34 12
60 0 47 -1 48 -30 48 -19 0 -33 -7 -40 -19z m50 -27 c0 -33 -33 -30 -38 4 -3
17 2 22 17 22 16 0 21 -6 21 -26z"/>
<path d="M1020 1740 c0 -22 5 -40 10 -40 6 0 10 18 10 40 0 22 -4 40 -10 40
-5 0 -10 -18 -10 -40z"/>
<path d="M1060 1740 c0 -22 5 -40 10 -40 6 0 10 14 10 30 0 17 5 30 10 30 6 0
10 5 10 10 0 6 -9 10 -20 10 -17 0 -20 -7 -20 -40z"/>
<path d="M1114 1771 c-9 -9 -4 -111 6 -111 6 0 10 9 10 21 0 15 5 19 15 15 30
-11 57 40 37 72 -8 11 -57 14 -68 3z m56 -30 c0 -11 -5 -23 -11 -27 -15 -9
-33 12 -26 30 9 23 37 20 37 -3z"/>
<path d="M1210 1765 c-15 -18 -6 -61 16 -69 24 -9 54 12 54 37 0 43 -44 63
-70 32z m50 -31 c0 -33 -33 -30 -38 4 -3 17 2 22 17 22 16 0 21 -6 21 -26z"/>
<path d="M1868 1789 c-10 -5 -18 -21 -18 -34 0 -14 -6 -25 -12 -25 -9 0 -8 -4
2 -10 12 -8 13 -13 3 -30 -19 -29 -17 -30 33 -30 27 0 43 4 39 10 -3 6 -17 10
-30 10 -18 0 -22 4 -18 19 3 11 12 22 22 24 14 4 14 5 -1 6 -25 1 -23 41 2 48
11 3 17 9 14 14 -7 11 -15 11 -36 -2z"/>
<path d="M1963 1788 c-25 -12 -32 -34 -8 -24 12 4 15 -5 15 -49 0 -30 5 -55
10 -55 6 0 10 30 10 70 0 39 -1 70 -2 69 -2 0 -13 -5 -25 -11z"/>
<path d="M2043 1793 c-22 -8 -14 -25 8 -18 13 5 25 2 30 -6 10 -18 2 -29 -22
-29 -10 0 -19 -4 -19 -10 0 -5 9 -10 20 -10 25 0 38 -29 19 -41 -8 -5 -22 -6
-31 -3 -10 3 -18 1 -18 -5 0 -17 56 -13 71 5 9 12 10 20 2 33 -6 10 -9 30 -6
45 7 37 -17 54 -54 39z"/>
<path d="M2146 1784 c-16 -15 -22 -78 -10 -108 7 -19 45 -21 62 -4 7 7 12 33
12 60 0 37 -4 50 -19 58 -25 13 -27 13 -45 -6z m44 -35 c9 -33 -3 -74 -20 -74
-16 0 -26 64 -16 92 8 21 29 11 36 -18z"/>
<path d="M510 1446 c0 -19 -4 -24 -15 -20 -36 14 -62 -50 -31 -75 8 -7 25 -9
39 -6 23 6 26 11 26 61 0 29 -5 56 -10 59 -5 4 -9 -5 -9 -19z m-2 -58 c-5 -34
-38 -37 -38 -4 0 20 5 26 21 26 15 0 20 -5 17 -22z"/>
<path d="M170 1405 l0 -55 33 0 c42 0 57 15 57 57 0 36 -21 53 -64 53 -25 0
-26 -3 -26 -55z m68 23 c16 -16 15 -33 -4 -52 -28 -28 -44 -20 -44 24 0 32 4
40 18 40 10 0 23 -5 30 -12z"/>
<path d="M280 1391 c0 -45 9 -54 45 -45 20 5 25 12 25 39 0 44 -18 55 -22 13
-4 -42 -28 -50 -28 -9 0 16 -4 33 -10 36 -6 4 -10 -10 -10 -34z"/>
<path d="M370 1382 c0 -26 4 -41 10 -37 6 3 10 19 10 36 0 19 5 29 15 29 10 0
15 -10 15 -30 0 -16 5 -30 10 -30 12 0 13 50 2 68 -5 6 -20 11 -35 10 -25 -2
-27 -6 -27 -46z"/>
<path d="M550 1410 c-6 -11 -8 -29 -5 -40 7 -23 43 -36 58 -21 8 8 5 11 -10
11 -12 0 -25 5 -28 10 -4 6 5 10 20 10 22 0 26 4 23 23 -4 30 -43 35 -58 7z"/>
<path d="M630 1410 c-6 -12 -8 -29 -5 -40 7 -23 43 -36 58 -21 8 8 5 11 -10
11 -12 0 -25 5 -28 10 -3 6 4 10 18 10 31 0 38 9 26 31 -13 25 -46 24 -59 -1z"/>
<path d="M1918 1439 c-10 -5 -18 -19 -18 -29 0 -10 -5 -22 -10 -25 -8 -5 -7
-11 1 -21 9 -11 8 -19 -6 -34 -18 -20 -17 -20 28 -20 28 0 47 5 47 11 0 7 -10
9 -25 7 -29 -6 -32 4 -8 28 13 13 14 19 5 22 -20 6 -14 43 8 49 11 3 17 9 14
14 -7 11 -15 11 -36 -2z"/>
<path d="M2102 1434 c-26 -18 -31 -94 -8 -114 25 -20 59 -8 68 25 18 67 -18
119 -60 89z m33 -60 c0 -37 -4 -49 -15 -49 -16 0 -27 63 -16 92 12 31 31 6 31
-43z"/>
<path d="M1990 1415 c0 -14 -1 -28 -2 -32 -2 -5 7 -9 20 -11 13 -2 26 -10 29
-19 7 -19 -16 -34 -39 -27 -10 3 -18 1 -18 -4 0 -17 26 -21 51 -8 34 17 32 57
-3 74 -30 14 -29 43 2 35 10 -3 21 0 24 6 5 7 -5 11 -28 11 -32 0 -36 -3 -36
-25z"/>
<path d="M165 1100 c-4 -6 5 -10 21 -10 26 0 26 -1 10 -25 -17 -26 -21 -45 -8
-45 11 1 39 63 35 78 -5 14 -49 16 -58 2z"/>
<path d="M1990 1089 c0 -6 8 -8 19 -4 29 9 35 -12 12 -41 -19 -24 -20 -44 -3
-44 12 0 45 78 38 89 -9 14 -66 14 -66 0z"/>
<path d="M165 760 c-4 -6 5 -10 19 -10 29 0 33 -12 11 -30 -16 -13 -21 -40 -7
-40 4 0 15 16 24 34 12 25 13 37 5 45 -14 14 -44 14 -52 1z"/>
<path d="M1990 739 c0 -6 8 -8 19 -4 29 9 35 -12 12 -41 -19 -24 -20 -44 -3
-44 12 0 45 78 38 89 -9 14 -66 14 -66 0z"/>
<path d="M165 410 c-3 -5 3 -10 14 -10 26 0 34 -15 16 -30 -17 -14 -20 -40 -5
-40 6 0 10 5 10 12 0 6 7 20 16 30 14 14 14 20 4 33 -14 17 -46 20 -55 5z"/>
<path d="M1990 400 c0 -5 11 -10 25 -10 30 0 31 -4 5 -38 -14 -17 -17 -29 -10
-36 5 -5 11 -8 12 -5 44 71 43 99 -3 99 -16 0 -29 -4 -29 -10z"/>
</g>
</svg>
